# xmcd CD database file
#
# Track frame offsets:
#	150
#	11860
#	23487
#	44197
#	63272
#	75245
#	85225
#	96637
#	109657
#	123655
#	136592
#	149295
#
# Disc length: 2215 seconds
#
# Revision: 0
# Processed by: cddbd v1.5.2PL0 Copyright (c) Steve Scherf et al.
# Submitted via: CDex 1.51
#
DISCID=9d08a50c
DTITLE=Vic Waters - Fishing Naked
DYEAR=2000
DGENRE=Blues
TTITLE0=Fishing Naked
TTITLE1=Oughta Be A Law
TTITLE2=Consequences of the Blues
TTITLE3=This Butt's for You
TTITLE4=Shrimpboats, Mud, And Marshgrass
TTITLE5=Old Used Carlotta
TTITLE6=Outlaws and Inlaws
TTITLE7=A Love Thing
TTITLE8=Who'd Ever Thought It
TTITLE9=Genuine Rodeo Cowboy
TTITLE10=Groupies
TTITLE11=Wandering Friend of Mine
EXTD=YEAR: 2000
EXTT0=
EXTT1=
EXTT2=
EXTT3=
EXTT4=
EXTT5=
EXTT6=
EXTT7=
EXTT8=
EXTT9=
EXTT10=
EXTT11=
PLAYORDER=
